<svg width="66" height="66" xmlns="http://www.w3.org/2000/svg">
 <defs>
  <style>.cls-1{fill:none;stroke:#fff;stroke-linejoin:round;stroke-width:2px;}</style>
 </defs>
 <g>
  <g stroke="null">
   <path stroke="null" d="m0.10718,32.77009a32.80247,32.80247 0 1 0 32.80247,-32.80247a32.80247,32.80247 0 0 0 -32.80247,32.80247z"/>
   <path stroke="null" d="m48.28581,26.80415l0,16.40123a6.05821,6.05821 0 0 1 -6.15046,5.96595l-18.45139,0a6.05821,6.05821 0 0 1 -6.15046,-5.96595l0,-26.652a0.15376,0.15376 0 0 1 0.15376,-0.18451l19.83524,0l10.76331,10.43528z" class="cls-1"/>
   <path stroke="null" d="m37.00996,16.36886l0,10.25077a1.90664,1.90664 0 0 0 0.6663,0l10.60955,0" class="cls-1"/>
  </g>
 </g>
</svg>