<svg width="67" height="67" xmlns="http://www.w3.org/2000/svg">
 <g>
  <ellipse ry="26.13636" rx="26.13636"  cy="33.5" cx="33.5" fill-opacity="null" stroke-width="1.5" fill="#fff" stroke="#ffffff"/>
  <path stroke="null" fill-rule="evenodd" clip-rule="evenodd" fill="#010101" d="m19.64017,34.14502c-0.05985,0 0.65616,1.51516 0.67612,1.51516c1.56282,2.7887 4.57542,4.52222 9.65737,5.00326c-0.72488,0.54089 -1.59608,1.56726 -1.71689,2.75323c-0.9122,0.57969 -2.74658,0.77144 -4.17197,0.32919c-1.99842,-0.61959 -2.76321,-4.5067 -5.75474,-3.95251c-0.6473,0.1186 -0.51872,0.53868 0.04101,0.89668c0.9122,0.57969 1.77009,1.30568 2.4318,2.84966c0.50875,1.18597 1.57723,3.3041 4.95781,3.3041c1.34115,0 2.28106,-0.1585 2.28106,-0.1585s0.02549,3.027 0.02549,4.20411c0,1.35777 -1.86431,1.74017 -1.86431,2.39301c0,0.25825 0.61737,0.28264 1.11282,0.28264c0.97981,0 3.01814,-0.80358 3.01814,-2.21456c0,-1.12058 0.01884,-4.88798 0.01884,-5.54858c0,-1.4409 0.78585,-1.89756 0.78585,-1.89756s0.09754,7.6922 -0.18732,8.72522c-0.33473,1.21257 -0.9388,1.04077 -0.9388,1.58167c0,0.80469 2.45397,0.1984 3.26752,-1.56948c0.62846,-1.37329 0.35358,-8.92251 0.35358,-8.92251l0.67057,-0.0133c0,0 0.03769,3.45484 0.01441,5.03429c-0.02328,1.63598 -0.13633,3.70423 0.85235,4.67961c0.64951,0.64176 2.75323,1.76677 2.75323,0.73819c0,-0.59742 -1.15272,-1.08844 -1.15272,-2.70557l0,-7.44281c0.92107,0 0.78252,2.44732 0.78252,2.44732l0.06761,4.54771c0,0 -0.20394,1.65593 1.8233,2.34867c0.71491,0.24717 2.24448,0.31367 2.31653,-0.09975c0.07205,-0.41343 -1.84214,-1.02858 -1.85987,-2.30988c-0.01108,-0.78363 0.03547,-1.24028 0.03547,-4.64081c0,-3.40053 -0.46441,-4.65744 -2.08377,-5.65942c4.99661,-0.50432 8.09011,-1.71911 9.59641,-4.97222c0.11749,0.00333 0.61515,-1.5196 0.54976,-1.5196c0.33806,-1.22809 0.52094,-2.68119 0.55641,-4.4014c-0.00887,-4.66631 -2.28106,-6.31669 -2.71665,-7.09146c0.64286,-3.53243 -0.10862,-5.13959 -0.45666,-5.69156c-1.28794,-0.45 -4.47899,1.15826 -6.22359,2.29103c-2.8419,-0.81688 -8.85157,-0.73819 -11.10492,0.21059c-4.15756,-2.92503 -6.3577,-2.47724 -6.3577,-2.47724s-1.42206,2.50384 -0.37574,6.16817c-1.36775,1.71357 -2.38746,2.92614 -2.38746,6.13935c0.00111,1.8111 0.21835,3.43156 0.70715,4.84587zm13.80717,32.62203c-18.36375,0 -33.25159,-14.88785 -33.25159,-33.25159c0,-18.36485 14.88785,-33.25159 33.25159,-33.25159s33.25159,14.88674 33.25159,33.25159c0,18.36375 -14.88785,33.25159 -33.25159,33.25159z"/>
 </g>
</svg>