<svg width="67" height="67" xmlns="http://www.w3.org/2000/svg">
 <g>
  <ellipse ry="26.13636" rx="26.13636" cy="33.5" cx="33.5" fill-opacity="null" stroke-width="1.5" fill="#fff" stroke="#ffffff"/>
  <path stroke="null" fill-rule="evenodd" clip-rule="evenodd" fill="#000" d="m52.01758,49.03503l0,-12.93764c0,-6.93167 -3.70057,-10.15724 -8.63393,-10.15724c-3.98115,0 -5.76516,2.19052 -6.75934,3.72708l0,-3.19685l-7.50056,0c0.09942,2.11761 0,22.56464 0,22.56464l7.50056,0l0,-12.60182c0,-0.67273 0.0486,-1.34657 0.24744,-1.82819c0.54128,-1.34767 1.77517,-2.74284 3.84638,-2.74284c2.71522,0 3.79999,2.06901 3.79999,5.10126l0,12.0727l7.49945,0l0,-0.0011zm-30.79537,-25.6444c2.6147,0 4.24406,-1.7343 4.24406,-3.90051c-0.0486,-2.21261 -1.62936,-3.8972 -4.19435,-3.8972s-4.24295,1.68348 -4.24295,3.8972c0,2.16621 1.62825,3.90051 4.14574,3.90051l0.0475,0zm12.19642,43.16743c-18.30181,0 -33.13943,-14.83763 -33.13943,-33.13943c0,-18.30291 14.83763,-33.13943 33.13943,-33.13943s33.13943,14.83652 33.13943,33.13943c0,18.30181 -14.83763,33.13943 -33.13943,33.13943zm-8.44614,-17.52303l0,-22.56464l-7.49945,0l0,22.56464l7.49945,0z"/>
 </g>
</svg>