<svg width="56.6934" height="56.6934" xmlns="http://www.w3.org/2000/svg">

 <g>
  <title>background</title>
  <rect fill="none" id="canvas_background" height="402" width="582" y="-1" x="-1"/>
 </g>
 <g>
  <title>Layer 1</title>
  <polygon id="svg_2" points="26.8137,25.055 18.403,34.039 26.049,29.8338 29.9676,34.039 38.3783,25.055 30.8278,29.2603  "/>
  <path stroke="null" id="svg_3" d="m28.347166,0.180537c-15.58836,0 -28.225963,12.635425 -28.225963,28.223785c0,15.588475 12.637603,28.226078 28.225963,28.226078c15.587214,0 28.224931,-12.637603 28.224931,-28.226078c0.000115,-15.58836 -12.637718,-28.223785 -28.224931,-28.223785zm0.104651,44.613021c-1.758556,0 -3.456477,-0.240939 -5.059259,-0.687284l-6.005478,3.316521l0,-6.265559c-4.008275,-3.012195 -6.573209,-7.62511 -6.573209,-12.796471c0,-9.075558 7.896768,-16.432678 17.637831,-16.432678s17.637946,7.35712 17.637946,16.432678c0,9.075787 -7.896654,16.432793 -17.637831,16.432793z"/>
 </g>
</svg>