<svg xmlns="http://www.w3.org/2000/svg" viewBox="0 0 36 36" width="36" height="36">
	<defs>
		<clipPath clipPathUnits="userSpaceOnUse" id="cp1">
			<path d="M0 1L35 1L35 36L0 36Z" />
		</clipPath>
	</defs>
	<style>
		tspan { white-space:pre }
		.shp0 { fill: #fff } 
	</style>
	<g id="Page 1" clip-path="url(#cp1)">
		<path id="Path 1" class="shp0" d="M17.71,36c-9.76,0 -17.71,-7.94 -17.71,-17.71c0,-9.76 7.94,-17.71 17.71,-17.71c9.76,0 17.71,7.94 17.71,17.71c0,9.76 -7.94,17.71 -17.71,17.71zM17.71,2.67c-8.62,0 -15.63,7.01 -15.63,15.62c0,8.62 7.01,15.63 15.63,15.63c8.62,0 15.62,-7.01 15.62,-15.63c0,-8.62 -7.01,-15.62 -15.62,-15.62zM17.71,22.62c-0.71,0 -1.42,-0.27 -1.96,-0.81l-3.98,-3.98c-0.41,-0.41 -0.41,-1.07 0,-1.47c0.41,-0.41 1.07,-0.41 1.47,0l3.98,3.98c0.27,0.27 0.71,0.27 0.98,0l3.98,-3.98c0.41,-0.41 1.07,-0.41 1.47,0c0.41,0.41 0.41,1.07 0,1.47l-3.98,3.98c-0.54,0.54 -1.25,0.81 -1.96,0.81z" />
	</g>
</svg>