<?xml version="1.0" encoding="UTF-8" standalone="no" ?>
<svg width="256px" height="300px" viewBox="0 0 256 300" version="1.1" xmlns="http://www.w3.org/2000/svg" xmlns:xlink="http://www.w3.org/1999/xlink" preserveAspectRatio="xMidYMid">
   <g>
      <path fill="#264DE4" d="m127.84387,291.82372l-104.18216,-28.92167l-23.21652,-260.40053l255.10962,0l-23.24114,260.35974l-104.4698,28.96246l0,0z"/>
      <path fill="#2965F1" d="m212.4167,246.28245l19.8611,-222.48932l-104.2778,0l0,245.89292l84.4167,-23.4036l0,0z"/>
      <path fill="#EBEBEB" d="m53.66857,120.37194l2.86242,31.9367l71.46901,0l0,-31.9367l-74.33143,0l0,0z"/>
      <path fill="#EBEBEB" d="m47.91701,55.73054l2.90321,31.9374l77.17978,0l0,-31.9374l-80.08299,0l0,0z"/>
      <path fill="#EBEBEB" d="m128,203.31594l-0.13996,0.03728l-35.56852,-9.60422l-2.27376,-25.4713l-32.05978,0l4.47437,50.14576l65.42066,18.16123l0.14699,-0.04079l0, -33.22796l0,0z"/>
      <path fill="#FFFFFF" d="m202.12677,120.37194l5.76563,-64.6414l-80.00282,0l0,31.9374l45.00255,0l-2.90602,32.704l-42.09653,0l0,31.9367l39.32695,0l-3.70708,41.41996l-35.61987,9.61407l0,33.22655l65.47271,-18.14576l0.48035,-5.39569l7.50488,-84.07983l0.77925,-8.576l0,0z"/>
    </g>
</svg>
