<?xml version="1.0" encoding="UTF-8" standalone="no"?>
<svg width="512px" height="512px" viewBox="0 0 515 300" version="1.1" xmlns="http://www.w3.org/2000/svg" xmlns:xlink="http://www.w3.org/1999/xlink" preserveAspectRatio="xMidYMid">
   <g>
      <path fill="#222222" d="m5.33225,198.62903l0,-56.98145l71.14351,0l0,-3.33225l-71.14351,0l0,-51.98308l75.64204,0l0,-3.33225l-78.97429,0l0,118.96128l79.64074,0l0,-3.33225l-76.30849,0l0,0zm140.45428,-82.30654l-29.4904,38.82069l-28.82395,-38.82069l-4.33193,0l31.15653,41.31988l-34.15555,44.31891l3.9987,0l32.1562,-41.81972l32.32281,41.81972l4.16531,0l-34.32216,-44.31891l31.32314,-41.31988l-3.9987,0l0,0zm16.99447,114.96257l0,-53.31597l0.33322,0c1.99936,7.77528 5.94248,14.02319 11.82948,18.74389c5.887,4.72071 13.38449,7.08103 22.49268,7.08103c5.887,0 11.10747,-1.19404 15.66157,-3.58217c4.5541,-2.38812 8.35837,-5.63703 11.41295,-9.74682c3.05458,-4.1098 5.38713,-8.88597 6.99772,-14.32867c1.6106,-5.4427 2.41588,-11.163 2.41588,-17.16108c0,-6.44238 -0.83305,-12.38483 -2.49918,-17.82753c-1.66614,-5.4427 -4.08199,-10.16334 -7.24764,-14.16206c-3.16566,-3.99872 -6.9977,-7.10878 -11.49626,-9.33029c-4.49856,-2.22151 -9.58019,-3.33225 -15.24504,-3.33225c-4.33194,0 -8.35837,0.63867 -12.0794,1.91604c-3.72103,1.27737 -7.02548,3.08232 -9.91344,5.4149c-2.88796,2.33259 -5.38712,5.08167 -7.49756,8.24732c-2.11043,3.16565 -3.721,6.63671 -4.83176,10.41328l-0.33322,0l0,-23.99219l-3.33225,0l0,114.96257l3.33225,0l0,0zm34.65538,-30.65668c-10.4411,0 -18.82717,-3.58214 -25.15848,-10.74651c-6.3313,-7.16437 -9.4969,-17.46646 -9.4969,-30.9066c0,-5.55378 0.77751,-10.82978 2.33257,-15.82818c1.55506,-4.9984 3.8043,-9.38582 6.7478,-13.16238c2.9435,-3.77657 6.58117,-6.77557 10.91312,-8.99708c4.33194,-2.22151 9.21919,-3.33224 14.66189,-3.33224c5.55378,0 10.41326,1.11073 14.57859,3.33224c4.16533,2.22151 7.60862,5.24828 10.32997,9.08038c2.72135,3.83211 4.77622,8.21952 6.16466,13.16238c1.38844,4.94286 2.08266,10.1911 2.08266,15.74488c0,4.9984 -0.63868,9.96895 -1.91605,14.91181c-1.27737,4.94286 -3.24893,9.38582 -5.91474,13.329c-2.66581,3.94318 -6.08133,7.16432 -10.24666,9.66352c-4.16534,2.49919 -9.19143,3.74878 -15.07843,3.74878l0,0l0,0zm54.81549,1.3329l0,-48.48422c0,-4.66517 0.66644,-9.2192 1.99935,-13.66222c1.33291,-4.44302 3.38777,-8.35837 6.16466,-11.74618c2.77689,-3.3878 6.30348,-6.05357 10.57989,-7.99739c4.27641,-1.94383 9.35804,-2.74911 15.24504,-2.41588l0,-3.33225c-5.10948,-0.11108 -9.5802,0.44429 -13.4123,1.66612c-3.83211,1.22183 -7.13656,2.88794 -9.91344,4.99837c-2.77689,2.11044 -4.99837,4.58183 -6.6645,7.41426c-1.66613,2.83242 -2.88795,5.85919 -3.66547,9.08037l-0.33323,0l0,-21.15977l-3.33225,0l0,85.63879l3.33225,0l0,0zm38.15425,-42.15295l71.64334,0c0.22215,-5.887 -0.36098,-11.55177 -1.74943,-16.99447c-1.38844,-5.4427 -3.60992,-10.27441 -6.66449,-14.49528c-3.05458,-4.22087 -6.9977,-7.60862 -11.82949,-10.16336c-4.83178,-2.55473 -10.57985,-3.83208 -17.24438,-3.83208c-4.77625,0 -9.44135,0.99966 -13.99545,2.99902c-4.55409,1.99936 -8.55275,4.91505 -11.99609,8.74715c-3.44334,3.83211 -6.22019,8.52498 -8.33062,14.07875c-2.11044,5.55378 -3.16564,11.88499 -3.16564,18.99382c0,6.33131 0.72198,12.24599 2.16596,17.74422c1.44398,5.49824 3.66546,10.27442 6.6645,14.32867c2.99904,4.05426 6.85885,7.1921 11.57956,9.41361c4.72071,2.22151 10.41325,3.27671 17.07778,3.16563c9.77464,0 17.99411,-2.74908 24.65864,-8.24731c6.66453,-5.49824 10.60765,-13.24564 11.82948,-23.24244l-3.33225,0c-1.44398,9.44142 -5.13719,16.52238 -11.07973,21.24309c-5.94254,4.72071 -13.41225,7.08103 -22.40937,7.08103c-6.10915,0 -11.27409,-1.0552 -15.49495,-3.16564c-4.22087,-2.11043 -7.66416,-4.99836 -10.32998,-8.66385c-2.66581,-3.66549 -4.63737,-7.9696 -5.91474,-12.91246c-1.27737,-4.94286 -1.97158,-10.30217 -2.08265,-16.0781l0,0l0,0zm68.31109,-3.33225l-68.31109,0c0.33322,-5.99808 1.44396,-11.38516 3.33225,-16.1614c1.88828,-4.77625 4.35967,-8.85821 7.41425,-12.24602c3.05458,-3.3878 6.60894,-5.97027 10.6632,-7.74748c4.05425,-1.7772 8.4139,-2.66579 13.07907,-2.66579c5.55378,0 10.44103,1.02743 14.66189,3.08233c4.22087,2.05489 7.74747,4.85951 10.57989,8.41392c2.83243,3.55442 4.9706,7.69192 6.41458,12.41263c1.44398,4.72071 2.16596,9.69126 2.16596,14.91181l0,0l0,0zm72.47641,-14.8285l3.33225,0c0,-9.5525 -2.77685,-16.49461 -8.33062,-20.82656c-5.55378,-4.33194 -13.1068,-6.49788 -22.65929,-6.49788c-5.33163,0 -9.83012,0.66644 -13.49561,1.99935c-3.66549,1.3329 -6.66448,3.05455 -8.99707,5.16498c-2.33259,2.11044 -3.99869,4.44299 -4.99837,6.99772c-0.99968,2.55474 -1.49951,4.99836 -1.49951,7.33095c0,4.66517 0.83305,8.38615 2.49918,11.16303c1.66613,2.77689 4.27637,4.94283 7.83079,6.49789c2.44366,1.11075 5.2205,2.11042 8.33062,2.99902c3.11011,0.88861 6.72001,1.83273 10.82981,2.83241c3.66549,0.88861 7.27539,1.7772 10.8298,2.6658c3.55442,0.88861 6.69226,2.08265 9.41361,3.58217c2.72135,1.49952 4.94282,3.41554 6.66449,5.74813c1.72167,2.33258 2.5825,5.38711 2.5825,9.16368c0,3.66549 -0.86083,6.77556 -2.5825,9.3303c-1.72167,2.55474 -3.91538,4.63737 -6.58119,6.24796c-2.66581,1.6106 -5.63704,2.77687 -8.91376,3.49886c-3.27673,0.722 -6.4701,1.08299 -9.58022,1.08299c-10.10787,0 -17.85527,-2.24925 -23.24243,-6.74781c-5.38716,-4.49856 -8.0807,-11.57951 -8.0807,-21.24308l-3.33225,0c0,10.77432 2.91569,18.66057 8.74715,23.65896c5.83146,4.9984 14.46745,7.49756 25.90823,7.49756c3.66549,0 7.3587,-0.41652 11.07973,-1.24959c3.72103,-0.83307 7.05324,-2.19372 9.99674,-4.08201c2.94351,-1.88828 5.33159,-4.3319 7.16434,-7.33094c1.83275,-2.99904 2.7491,-6.66448 2.7491,-10.99642c0,-4.1098 -0.80528,-7.44201 -2.41588,-9.99675c-1.61059,-2.55474 -3.72099,-4.66514 -6.33127,-6.33127c-2.61027,-1.66613 -5.55373,-2.97125 -8.83046,-3.91539c-3.27672,-0.94414 -6.58117,-1.8605 -9.91344,-2.74911c-4.66517,-1.22183 -8.74713,-2.27703 -12.24601,-3.16563c-3.49888,-0.88861 -6.74779,-1.94381 -9.74683,-3.16564c-2.88796,-1.22183 -5.19274,-2.97124 -6.91441,-5.24829c-1.72167,-2.27705 -2.5825,-5.52596 -2.5825,-9.74683c0,-0.77753 0.22215,-2.16595 0.66645,-4.16531c0.44431,-1.99936 1.49951,-4.02646 3.16564,-6.08135c1.66613,-2.0549 4.22083,-3.88762 7.66417,-5.49821c3.44334,-1.6106 8.16398,-2.41588 14.16206,-2.41588c4.10979,0 7.85853,0.44429 11.24634,1.33289c3.3878,0.88861 6.30349,2.3048 8.74715,4.24862c2.44366,1.94382 4.33192,4.41522 5.66482,7.41426c1.33291,2.99903 1.99935,6.66447 1.99935,10.99642l0,0l0,0zm77.14156,0l3.33225,0c0,-9.5525 -2.77685,-16.49461 -8.33063,-20.82656c-5.55377,-4.33194 -13.10679,-6.49788 -22.65929,-6.49788c-5.33162,0 -9.83011,0.66644 -13.4956,1.99935c-3.66549,1.3329 -6.66449,3.05455 -8.99707,5.16498c-2.33259,2.11044 -3.9987,4.44299 -4.99838,6.99772c-0.99968,2.55474 -1.49951,4.99836 -1.49951,7.33095c0,4.66517 0.83305,8.38615 2.49919,11.16303c1.66613,2.77689 4.27637,4.94283 7.83078,6.49789c2.44366,1.11075 5.22051,2.11042 8.33062,2.99902c3.11012,0.88861 6.72002,1.83273 10.82981,2.83241c3.66549,0.88861 7.27539,1.7772 10.82981,2.6658c3.55442,0.88861 6.69225,2.08265 9.4136,3.58217c2.72135,1.49952 4.94283,3.41554 6.6645,5.74813c1.72167,2.33258 2.58249,5.38711 2.58249,9.16368c0,3.66549 -0.86082,6.77556 -2.58249,9.3303c-1.72167,2.55474 -3.91538,4.63737 -6.58119,6.24796c-2.66581,1.6106 -5.63704,2.77687 -8.91377,3.49886c-3.27672,0.722 -6.4701,1.08299 -9.58021,1.08299c-10.10787,0 -17.85527,-2.24925 -23.24244,-6.74781c-5.38716,-4.49856 -8.0807,-11.57951 -8.0807,-21.24308l-3.33225,0c0,10.77432 2.91569,18.66057 8.74715,23.65896c5.83147,4.9984 14.46746,7.49756 25.90824,7.49756c3.66549,0 7.35869,-0.41652 11.07972,-1.24959c3.72103,-0.83307 7.05325,-2.19372 9.99675,-4.08201c2.9435,-1.88828 5.33159,-4.3319 7.16433,-7.33094c1.83275,-2.99904 2.74911,-6.66448 2.74911,-10.99642c0,-4.1098 -0.80529,-7.44201 -2.41588,-9.99675c-1.6106,-2.55474 -3.721,-4.66514 -6.33127,-6.33127c-2.61028,-1.66613 -5.55373,-2.97125 -8.83046,-3.91539c-3.27673,-0.94414 -6.58118,-1.8605 -9.91344,-2.74911c-4.66517,-1.22183 -8.74714,-2.27703 -12.24601,-3.16563c-3.49888,-0.88861 -6.74779,-1.94381 -9.74683,-3.16564c-2.88797,-1.22183 -5.19275,-2.97124 -6.91442,-5.24829c-1.72167,-2.27705 -2.58249,-5.52596 -2.58249,-9.74683c0,-0.77753 0.22215,-2.16595 0.66645,-4.16531c0.4443,-1.99936 1.4995,-4.02646 3.16564,-6.08135c1.66613,-2.0549 4.22083,-3.88762 7.66417,-5.49821c3.44334,-1.6106 8.16398,-2.41588 14.16205,-2.41588c4.1098,0 7.85854,0.44429 11.24634,1.33289c3.38781,0.88861 6.30349,2.3048 8.74716,4.24862c2.44366,1.94382 4.33191,4.41522 5.66482,7.41426c1.3329,2.99903 1.99935,6.66447 1.99935,10.99642l0,0l0,0z"/>
   </g>
</svg>
