<?xml version="1.0" encoding="UTF-8" standalone="no" ?>
<svg width="256px" height="300px" viewBox="0 0 256 300" version="1.1" xmlns="http://www.w3.org/2000/svg" xmlns:xlink="http://www.w3.org/1999/xlink" preserveAspectRatio="xMidYMid">
    <g>
      <path fill="#E44D26" d="m255.55481,2.76571l-23.24114,260.35974l-104.4698,28.96246l-104.18216,-28.92167l-23.21652,-260.40053l255.10962,0l0,0z"/>
      <path fill="#F16529" d="m128,269.95024l84.4167,-23.4036l19.8611,-222.48932l-104.2778,0l0,245.89292l0,0z"/>
      <path fill="#EBEBEB" d="m82.82022,87.93213l45.17978,0l0,-31.9374l-80.08299,0l0.76448,8.56826l7.8495,88.00984l71.46901,0l0,-31.9367l-42.2611,0l-2.91868,-32.704l0,0z"/>
      <path fill="#EBEBEB" d="m90.01776,168.54189l-32.05978,0l4.47437,50.14576l65.42066,18.16123l0.14699,-0.04079l0,-33.22796l-0.13996,0.03728l-35.56852,-9.60422l-2.27376, -25.4713l0,0z"/>
      <path fill="#FFFFFF" d="m127.88958,152.57283l39.32695,0l-3.70708,41.41996l-35.61987,9.61407l0,33.22655l65.47271,-18.14576l0.48035,-5.39569l7.50488,-84.07983l0.77925,   -8.576l-74.23719,0l0,31.9367l0,0z"/>
      <path fill="#FFFFFF" d="m127.88958,87.85407l0,0.07806l77.14321,0l0.64071,-7.17855l1.45511,-16.19059l0.76379,-8.56826l-80.00282,0l0,31.85934l0,0z"/>
   </g>
</svg>
