<svg width="2589.0667" height="2500" xmlns="http://www.w3.org/2000/svg">
 <metadata id="metadata8">image/svg+xml</metadata>
 <defs>
  <clipPath clipPathUnits="userSpaceOnUse" id="clipPath20">
   <path d="m1332.5,171.09223l-144.68,47.911c0,0 18.44,732.218 -245.625,783.48c-174.148,201.779 26.785,8618.939 659.415,28.859c0,0 -216.54,-108.742 -257.52,-293.359c-40.97,-184.742 -11.59,-566.891 -11.59,-566.891z" id="path18"/>
  </clipPath>
  <clipPath clipPathUnits="userSpaceOnUse" id="clipPath38">
   <path d="m1410.49,878.18223c0,0 1257.15,827.99 962.62,2547.57c-283.64,1249.3 -953.28,1659.97 -1025.25,1816.79c-79.21,110.95 -159,307.61 -159,307.61l53.47,-3480.89c0,0 -110.62,-1062.869 168.16,-1191.08z" id="path36"/>
  </clipPath>
  <clipPath clipPathUnits="userSpaceOnUse" id="clipPath54">
   <path d="m0,32.61223l19418,0l0,5532l-19418,0l0,-5532z" id="path52"/>
  </clipPath>
  <clipPath clipPathUnits="userSpaceOnUse" id="clipPath60">
   <path d="m1114.22,831.92123c0,0 -1179.2552,804.461 -1111.39969,2223.871c67.85549,1419.44 900.75369,2117.33 1062.96969,2243.95c104.87,111.82 109.21,154.9 117.32,265.17c73.51,-157.87 61.3,-2358.51 69.08,-2615.71c30.23,-1001.27 -55.45,-1928.281 -137.97,-2117.281z" id="path58"/>
  </clipPath>
  <linearGradient x1="-0.70443" y1="0.56045" x2="1.60735" y2="0.44147" spreadMethod="pad" id="linearGradient28">
   <stop stop-color="#929669" offset="0" id="stop22"/>
   <stop stop-color="#929669" offset="0.23077" id="stop24"/>
   <stop stop-color="#fdfcf0" offset="1" id="stop26"/>
  </linearGradient>
  <linearGradient x1="-0.16608" y1="0.99299" x2="0.78151" y2="0.02535" spreadMethod="pad" id="linearGradient44">
   <stop stop-color="#44aa3a" offset="0" id="stop40"/>
   <stop stop-color="#3d9439" offset="1" id="stop42"/>
  </linearGradient>
  <linearGradient x1="-0.09621" y1="0.43911" x2="1.52271" y2="0.53695" spreadMethod="pad" id="linearGradient66">
   <stop stop-color="#40a73c" offset="0" id="stop62"/>
   <stop stop-color="#5ebc45" offset="1" id="stop64"/>
  </linearGradient>
 </defs>
 <g>
  <title>background</title>
  <rect fill="none" id="canvas_background" height="402" width="582" y="-1" x="-1"/>
 </g>
 <g>
  <title>Layer 1</title>
  <g id="g10" transform="matrix(1.3333333,0,0,-1.3333333,0,737.64) ">
   <g id="g12" transform="translate(0,-664.1312255859375) scale(0.10000000149011612) ">
    <g id="g14">
     <g id="g16" clip-path="url(#clipPath20)">
      <path fill="url(#linearGradient28)" fill-rule="nonzero" d="m1332.5,171.09223l-144.68,47.911c0,0 18.44,732.218 -245.625,783.48c-174.148,201.779 26.785,8618.939 659.415,28.859c0,0 -216.54,-108.742 -257.52,-293.359c-40.97,-184.742 -11.59,-566.891 -11.59,-566.891" id="path30"/>
     </g>
    </g>
    <g id="g32">
     <g id="g34" clip-path="url(#clipPath38)">
      <path fill="url(#linearGradient44)" fill-rule="nonzero" d="m1410.49,878.18223c0,0 1257.15,827.99 962.62,2547.57c-283.64,1249.3 -953.28,1659.97 -1025.25,1816.79c-79.21,110.95 -159,307.61 -159,307.61l53.47,-3480.89c0,0 -110.62,-1062.869 168.16,-1191.08" id="path46"/>
     </g>
    </g>
    <g id="g48">
     <g id="g50" clip-path="url(#clipPath54)">
      <g id="g56" clip-path="url(#clipPath60)">
       <path fill="url(#linearGradient66)" fill-rule="nonzero" d="m1113,831.61223l0,1l-2,0l0,1l-1,0l0,1l-2,0l0,1l-1,0l0,1l-1,0l0,1l-2,0l0,1l-1,0l0,1l-2,0l0,1l-1,0l0,1l-1,0l0,1l-2,0l0,1l-1,0l0,1l-1,0l0,1l-2,0l0,1l-1,0l0,1l-1,0l0,1l-2,0l0,1l-1,0l0,1l-2,0l0,1l-1,0l0,1l-1,0l0,1l-2,0l0,1l-1,0l0,1l-1,0l0,1l-2,0l0,1l-1,0l0,1l-1,0l0,1l-2,0l0,1l-1,0l0,1l-1,0l0,1l-1,0l0,1l-2,0l0,1l-1,0l0,1l-1,0l0,1l-2,0l0,1l-1,0l0,1l-1,0l0,1l-2,0l0,1l-1,0l0,1l-1,0l0,1l-1,0l0,1l-2,0l0,1l-1,0l0,1l-1,0l0,1l-2,0l0,1l-1,0l0,1l-1,0l0,1l-1,0l0,1l-2,0l0,1l-1,0l0,1l-1,0l0,1l-1,0l0,1l-2,0l0,1l-1,0l0,1l-1,0l0,1l-1,0l0,1l-2,0l0,1l-1,0l0,1l-1,0l0,1l-1,0l0,1l-2,0l0,1l-1,0l0,1l-1,0l0,1l-1,0l0,1l-2,0l0,1l-1,0l0,1l-1,0l0,1l-1,0l0,1l-2,0l0,1l-1,0l0,1l-1,0l0,1l-1,0l0,1l-2,0l0,1l-1,0l0,1l-1,0l0,1l-1,0l0,1l-1,0l0,1l-2,0l0,1l-1,0l0,1l-1,0l0,1l-1,0l0,1l-2,0l0,1l-1,0l0,1l-1,0l0,1l-1,0l0,1l-1,0l0,1l-2,0l0,1l-1,0l0,1l-1,0l0,1l-1,0l0,1l-1,0l0,1l-2,0l0,1l-1,0l0,1l-1,0l0,1l-1,0l0,1l-1,0l0,1l-2,0l0,1l-1,0l0,1l-1,0l0,1l-1,0l0,1l-1,0l0,1l-1,0l0,1l-2,0l0,1l-1,0l0,1l-1,0l0,1l-1,0l0,1l-1,0l0,1l-2,0l0,1l-1,0l0,1l-1,0l0,1l-1,0l0,1l-1,0l0,1l-1,0l0,1l-2,0l0,1l-1,0l0,1l-1,0l0,1l-1,0l0,1l-1,0l0,1l-1,0l0,1l-1,0l0,1l-2,0l0,1l-1,0l0,1l-1,0l0,1l-1,0l0,1l-1,0l0,1l-1,0l0,1l-2,0l0,1l-1,0l0,1l-1,0l0,1l-1,0l0,1l-1,0l0,1l-1,0l0,1l-1,0l0,1l-2,0l0,1l-1,0l0,1l-1,0l0,1l-1,0l0,1l-1,0l0,1l-1,0l0,1l-1,0l0,1l-1,0l0,1l-2,0l0,1l-1,0l0,1l-1,0l0,1l-1,0l0,1l-1,0l0,1l-1,0l0,1l-1,0l0,1l-1,0l0,1l-2,0l0,1l-1,0l0,1l-1,0l0,1l-1,0l0,1l-1,0l0,1l-1,0l0,1l-1,0l0,1l-1,0l0,1l-1,0l0,1l-2,0l0,1l-1,0l0,1l-1,0l0,1l-1,0l0,1l-1,0l0,1l-1,0l0,1l-1,0l0,1l-1,0l0,1l-1,0l0,1l-2,0l0,1l-1,0l0,1l-1,0l0,1l-1,0l0,1l-1,0l0,1l-1,0l0,1l-1,0l0,1l-1,0l0,1l-1,0l0,1l-1,0l0,1l-1,0l0,1l-2,0l0,1l-1,0l0,1l-1,0l0,1l-1,0l0,1l-1,0l0,1l-1,0l0,1l-1,0l0,1l-1,0l0,1l-1,0l0,1l-1,0l0,1l-1,0l0,1l-1,0l0,1l-1,0l0,1l-2,0l0,1l-1,0l0,1l-1,0l0,1l-1,0l0,1l-1,0l0,1l-1,0l0,1l-1,0l0,1l-1,0l0,1l-1,0l0,1l-1,0l0,1l-1,0l0,1l-1,0l0,1l-1,0l0,1l-1,0l0,1l-1,0l0,1l-2,0l0,1l-1,0l0,1l-1,0l0,1l-1,0l0,1l-1,0l0,1l-1,0l0,1l-1,0l0,1l-1,0l0,1l-1,0l0,1l-1,0l0,1l-1,0l0,1l-1,0l0,1l-1,0l0,1l-1,0l0,1l-1,0l0,1l-1,0l0,1l-1,0l0,1l-1,0l0,1l-1,0l0,1l-1,0l0,1l-1,0l0,1l-1,0l0,1l-2,0l0,1l-1,0l0,1l-1,0l0,1l-1,0l0,1l-1,0l0,1l-1,0l0,1l-1,0l0,1l-1,0l0,1l-1,0l0,1l-1,0l0,1l-1,0l0,1l-1,0l0,1l-1,0l0,1l-1,0l0,1l-1,0l0,1l-1,0l0,1l-1,0l0,1l-1,0l0,1l-1,0l0,1l-1,0l0,1l-1,0l0,1l-1,0l0,1l-1,0l0,1l-1,0l0,1l-1,0l0,1l-1,0l0,1l-1,0l0,1l-1,0l0,1l-1,0l0,1l-1,0l0,1l-1,0l0,1l-1,0l0,1l-1,0l0,1l-1,0l0,1l-1,0l0,1l-1,0l0,1l-1,0l0,1l-1,0l0,1l-1,0l0,1l-1,0l0,1l-1,0l0,1l-1,0l0,1l-1,0l0,1l-1,0l0,1l-1,0l0,1l-1,0l0,1l-1,0l0,1l-1,0l0,1l-1,0l0,1l-1,0l0,1l-1,0l0,1l-1,0l0,1l-1,0l0,1l-1,0l0,1l-1,0l0,1l-1,0l0,1l-1,0l0,1l-1,0l0,1l-1,0l0,1l-1,0l0,1l-1,0l0,1l-1,0l0,1l-1,0l0,1l-1,0l0,1l-1,0l0,1l-1,0l0,1l-1,0l0,1l-1,0l0,2l-1,0l0,1l-1,0l0,1l-1,0l0,1l-1,0l0,1l-1,0l0,1l-1,0l0,1l-1,0l0,1l-1,0l0,1l-1,0l0,1l-1,0l0,1l-1,0l0,1l-1,0l0,1l-1,0l0,1l-1,0l0,1l-1,0l0,1l-1,0l0,1l-1,0l0,1l-1,0l0,1l-1,0l0,1l-1,0l0,1l-1,0l0,1l-1,0l0,1l-1,0l0,2l-1,0l0,1l-1,0l0,1l-1,0l0,1l-1,0l0,1l-1,0l0,1l-1,0l0,1l-1,0l0,1l-1,0l0,1l-1,0l0,1l-1,0l0,1l-1,0l0,1l-1,0l0,1l-1,0l0,1l-1,0l0,1l-1,0l0,1l-1,0l0,2l-1,0l0,1l-1,0l0,1l-1,0l0,1l-1,0l0,1l-1,0l0,1l-1,0l0,1l-1,0l0,1l-1,0l0,1l-1,0l0,1l-1,0l0,1l-1,0l0,1l-1,0l0,1l-1,0l0,1l-1,0l0,2l-1,0l0,1l-1,0l0,1l-1,0l0,1l-1,0l0,1l-1,0l0,1l-1,0l0,1l-1,0l0,1l-1,0l0,1l-1,0l0,1l-1,0l0,2l-1,0l0,1l-1,0l0,1l-1,0l0,1l-1,0l0,1l-1,0l0,1l-1,0l0,1l-1,0l0,1l-1,0l0,1l-1,0l0,1l-1,0l0,2l-1,0l0,1l-1,0l0,1l-1,0l0,1l-1,0l0,1l-1,0l0,1l-1,0l0,1l-1,0l0,1l-1,0l0,1l-1,0l0,1l-1,0l0,2l-1,0l0,1l-1,0l0,1l-1,0l0,1l-1,0l0,1l-1,0l0,1l-1,0l0,1l-1,0l0,1l-1,0l0,2l-1,0l0,1l-1,0l0,1l-1,0l0,1l-1,0l0,1l-1,0l0,1l-1,0l0,1l-1,0l0,2l-1,0l0,1l-1,0l0,1l-1,0l0,1l-1,0l0,1l-1,0l0,1l-1,0l0,1l-1,0l0,1l-1,0l0,2l-1,0l0,1l-1,0l0,1l-1,0l0,1l-1,0l0,1l-1,0l0,1l-1,0l0,1l-1,0l0,2l-1,0l0,1l-1,0l0,1l-1,0l0,1l-1,0l0,1l-1,0l0,1l-1,0l0,2l-1,0l0,1l-1,0l0,1l-1,0l0,1l-1,0l0,1l-1,0l0,1l-1,0l0,2l-1,0l0,1l-1,0l0,1l-1,0l0,1l-1,0l0,1l-1,0l0,1l-1,0l0,2l-1,0l0,1l-1,0l0,1l-1,0l0,1l-1,0l0,1l-1,0l0,1l-1,0l0,2l-1,0l0,1l-1,0l0,1l-1,0l0,1l-1,0l0,1l-1,0l0,2l-1,0l0,1l-1,0l0,1l-1,0l0,1l-1,0l0,1l-1,0l0,1l-1,0l0,2l-1,0l0,1l-1,0l0,1l-1,0l0,1l-1,0l0,1l-1,0l0,2l-1,0l0,1l-1,0l0,1l-1,0l0,1l-1,0l0,1l-1,0l0,2l-1,0l0,1l-1,0l0,1l-1,0l0,1l-1,0l0,1l-1,0l0,2l-1,0l0,1l-1,0l0,1l-1,0l0,1l-1,0l0,2l-1,0l0,1l-1,0l0,1l-1,0l0,1l-1,0l0,1l-1,0l0,2l-1,0l0,1l-1,0l0,1l-1,0l0,1l-1,0l0,2l-1,0l0,1l-1,0l0,1l-1,0l0,1l-1,0l0,2l-1,0l0,1l-1,0l0,1l-1,0l0,1l-1,0l0,1l-1,0l0,2l-1,0l0,1l-1,0l0,1l-1,0l0,1l-1,0l0,2l-1,0l0,1l-1,0l0,1l-1,0l0,1l-1,0l0,2l-1,0l0,1l-1,0l0,1l-1,0l0,1l-1,0l0,2l-1,0l0,1l-1,0l0,1l-1,0l0,1l-1,0l0,2l-1,0l0,1l-1,0l0,1l-1,0l0,2l-1,0l0,1l-1,0l0,1l-1,0l0,1l-1,0l0,2l-1,0l0,1l-1,0l0,1l-1,0l0,1l-1,0l0,2l-1,0l0,1l-1,0l0,1l-1,0l0,1l-1,0l0,2l-1,0l0,1l-1,0l0,1l-1,0l0,2l-1,0l0,1l-1,0l0,1l-1,0l0,2l-1,0l0,1l-1,0l0,1l-1,0l0,1l-1,0l0,2l-1,0l0,1l-1,0l0,1l-1,0l0,2l-1,0l0,1l-1,0l0,1l-1,0l0,2l-1,0l0,1l-1,0l0,1l-1,0l0,1l-1,0l0,2l-1,0l0,1l-1,0l0,1l-1,0l0,2l-1,0l0,1l-1,0l0,1l-1,0l0,2l-1,0l0,1l-1,0l0,1l-1,0l0,2l-1,0l0,1l-1,0l0,1l-1,0l0,2l-1,0l0,1l-1,0l0,1l-1,0l0,2l-1,0l0,1l-1,0l0,1l-1,0l0,2l-1,0l0,1l-1,0l0,1l-1,0l0,2l-1,0l0,1l-1,0l0,1l-1,0l0,2l-1,0l0,1l-1,0l0,1l-1,0l0,2l-1,0l0,1l-1,0l0,1l-1,0l0,2l-1,0l0,1l-1,0l0,1l-1,0l0,2l-1,0l0,1l-1,0l0,2l-1,0l0,1l-1,0l0,1l-1,0l0,2l-1,0l0,1l-1,0l0,2l-1,0l0,1l-1,0l0,1l-1,0l0,2l-1,0l0,1l-1,0l0,1l-1,0l0,2l-1,0l0,1l-1,0l0,2l-1,0l0,1l-1,0l0,1l-1,0l0,2l-1,0l0,1l-1,0l0,2l-1,0l0,1l-1,0l0,1l-1,0l0,2l-1,0l0,1l-1,0l0,2l-1,0l0,1l-1,0l0,1l-1,0l0,2l-1,0l0,1l-1,0l0,2l-1,0l0,1l-1,0l0,1l-1,0l0,2l-1,0l0,1l-1,0l0,2l-1,0l0,1l-1,0l0,2l-1,0l0,1l-1,0l0,2l-1,0l0,1l-1,0l0,1l-1,0l0,2l-1,0l0,1l-1,0l0,2l-1,0l0,1l-1,0l0,2l-1,0l0,1l-1,0l0,1l-1,0l0,2l-1,0l0,1l-1,0l0,2l-1,0l0,1l-1,0l0,2l-1,0l0,1l-1,0l0,2l-1,0l0,1l-1,0l0,2l-1,0l0,1l-1,0l0,2l-1,0l0,1l-1,0l0,1l-1,0l0,2l-1,0l0,1l-1,0l0,2l-1,0l0,1l-1,0l0,2l-1,0l0,1l-1,0l0,2l-1,0l0,1l-1,0l0,2l-1,0l0,1l-1,0l0,2l-1,0l0,1l-1,0l0,2l-1,0l0,1l-1,0l0,2l-1,0l0,1l-1,0l0,2l-1,0l0,1l-1,0l0,2l-1,0l0,1l-1,0l0,2l-1,0l0,1l-1,0l0,2l-1,0l0,1l-1,0l0,2l-1,0l0,2l-1,0l0,1l-1,0l0,2l-1,0l0,1l-1,0l0,2l-1,0l0,1l-1,0l0,2l-1,0l0,1l-1,0l0,2l-1,0l0,1l-1,0l0,2l-1,0l0,1l-1,0l0,2l-1,0l0,2l-1,0l0,1l-1,0l0,2l-1,0l0,1l-1,0l0,2l-1,0l0,1l-1,0l0,2l-1,0l0,1l-1,0l0,2l-1,0l0,2l-1,0l0,1l-1,0l0,2l-1,0l0,1l-1,0l0,2l-1,0l0,2l-1,0l0,1l-1,0l0,2l-1,0l0,1l-1,0l0,2l-1,0l0,2l-1,0l0,1l-1,0l0,2l-1,0l0,1l-1,0l0,2l-1,0l0,2l-1,0l0,1l-1,0l0,2l-1,0l0,1l-1,0l0,2l-1,0l0,2l-1,0l0,1l-1,0l0,2l-1,0l0,1l-1,0l0,2l-1,0l0,2l-1,0l0,1l-1,0l0,2l-1,0l0,2l-1,0l0,1l-1,0l0,2l-1,0l0,2l-1,0l0,1l-1,0l0,2l-1,0l0,2l-1,0l0,1l-1,0l0,2l-1,0l0,2l-1,0l0,1l-1,0l0,2l-1,0l0,2l-1,0l0,1l-1,0l0,2l-1,0l0,2l-1,0l0,1l-1,0l0,2l-1,0l0,2l-1,0l0,1l-1,0l0,2l-1,0l0,2l-1,0l0,2l-1,0l0,1l-1,0l0,2l-1,0l0,2l-1,0l0,1l-1,0l0,2l-1,0l0,2l-1,0l0,2l-1,0l0,1l-1,0l0,2l-1,0l0,2l-1,0l0,2l-1,0l0,1l-1,0l0,2l-1,0l0,2l-1,0l0,2l-1,0l0,1l-1,0l0,2l-1,0l0,2l-1,0l0,1l-1,0l0,2l-1,0l0,2l-1,0l0,2l-1,0l0,1l-1,0l0,2l-1,0l0,2l-1,0l0,2l-1,0l0,2l-1,0l0,2l-1,0l0,1l-1,0l0,2l-1,0l0,2l-1,0l0,2l-1,0l0,2l-1,0l0,1l-1,0l0,2l-1,0l0,2l-1,0l0,2l-1,0l0,2l-1,0l0,1l-1,0l0,2l-1,0l0,2l-1,0l0,2l-1,0l0,2l-1,0l0,1l-1,0l0,2l-1,0l0,2l-1,0l0,2l-1,0l0,2l-1,0l0,2l-1,0l0,2l-1,0l0,1l-1,0l0,2l-1,0l0,2l-1,0l0,2l-1,0l0,2l-1,0l0,2l-1,0l0,2l-1,0l0,2l-1,0l0,2l-1,0l0,2l-1,0l0,1l-1,0l0,2l-1,0l0,2l-1,0l0,2l-1,0l0,2l-1,0l0,2l-1,0l0,2l-1,0l0,2l-1,0l0,2l-1,0l0,1l-1,0l0,2l-1,0l0,2l-1,0l0,2l-1,0l0,2l-1,0l0,2l-1,0l0,2l-1,0l0,2l-1,0l0,2l-1,0l0,2l-1,0l0,2l-1,0l0,2l-1,0l0,2l-1,0l0,2l-1,0l0,2l-1,0l0,2l-1,0l0,2l-1,0l0,2l-1,0l0,2l-1,0l0,2l-1,0l0,2l-1,0l0,2l-1,0l0,2l-1,0l0,2l-1,0l0,2l-1,0l0,2l-1,0l0,2l-1,0l0,2l-1,0l0,2l-1,0l0,2l-1,0l0,3l-1,0l0,2l-1,0l0,2l-1,0l0,2l-1,0l0,2l-1,0l0,2l-1,0l0,2l-1,0l0,2l-1,0l0,2l-1,0l0,2l-1,0l0,2l-1,0l0,2l-1,0l0,3l-1,0l0,2l-1,0l0,2l-1,0l0,2l-1,0l0,2l-1,0l0,2l-1,0l0,2l-1,0l0,2l-1,0l0,3l-1,0l0,2l-1,0l0,2l-1,0l0,2l-1,0l0,2l-1,0l0,3l-1,0l0,2l-1,0l0,2l-1,0l0,2l-1,0l0,2l-1,0l0,3l-1,0l0,2l-1,0l0,2l-1,0l0,2l-1,0l0,2l-1,0l0,3l-1,0l0,2l-1,0l0,2l-1,0l0,2l-1,0l0,3l-1,0l0,2l-1,0l0,2l-1,0l0,3l-1,0l0,2l-1,0l0,2l-1,0l0,3l-1,0l0,2l-1,0l0,2l-1,0l0,3l-1,0l0,2l-1,0l0,2l-1,0l0,2l-1,0l0,3l-1,0l0,2l-1,0l0,2l-1,0l0,3l-1,0l0,2l-1,0l0,2l-1,0l0,3l-1,0l0,2l-1,0l0,3l-1,0l0,2l-1,0l0,2l-1,0l0,3l-1,0l0,2l-1,0l0,3l-1,0l0,2l-1,0l0,3l-1,0l0,2l-1,0l0,3l-1,0l0,2l-1,0l0,3l-1,0l0,2l-1,0l0,3l-1,0l0,2l-1,0l0,3l-1,0l0,2l-1,0l0,3l-1,0l0,2l-1,0l0,2l-1,0l0,3l-1,0l0,3l-1,0l0,2l-1,0l0,3l-1,0l0,2l-1,0l0,3l-1,0l0,3l-1,0l0,2l-1,0l0,3l-1,0l0,3l-1,0l0,2l-1,0l0,3l-1,0l0,3l-1,0l0,2l-1,0l0,3l-1,0l0,2l-1,0l0,3l-1,0l0,3l-1,0l0,2l-1,0l0,3l-1,0l0,3l-1,0l0,3l-1,0l0,2l-1,0l0,3l-1,0l0,3l-1,0l0,3l-1,0l0,3l-1,0l0,3l-1,0l0,2l-1,0l0,3l-1,0l0,3l-1,0l0,3l-1,0l0,3l-1,0l0,2l-1,0l0,3l-1,0l0,3l-1,0l0,3l-1,0l0,3l-1,0l0,3l-1,0l0,3l-1,0l0,3l-1,0l0,3l-1,0l0,3l-1,0l0,3l-1,0l0,3l-1,0l0,3l-1,0l0,3l-1,0l0,3l-1,0l0,3l-1,0l0,3l-1,0l0,3l-1,0l0,3l-1,0l0,3l-1,0l0,3l-1,0l0,3l-1,0l0,3l-1,0l0,3l-1,0l0,4l-1,0l0,3l-1,0l0,3l-1,0l0,4l-1,0l0,3l-1,0l0,3l-1,0l0,3l-1,0l0,4l-1,0l0,3l-1,0l0,3l-1,0l0,4l-1,0l0,3l-1,0l0,3l-1,0l0,4l-1,0l0,3l-1,0l0,3l-1,0l0,4l-1,0l0,3l-1,0l0,4l-1,0l0,4l-1,0l0,3l-1,0l0,4l-1,0l0,3l-1,0l0,4l-1,0l0,4l-1,0l0,3l-1,0l0,4l-1,0l0,3l-1,0l0,4l-1,0l0,3l-1,0l0,4l-1,0l0,4l-1,0l0,4l-1,0l0,4l-1,0l0,4l-1,0l0,4l-1,0l0,4l-1,0l0,4l-1,0l0,4l-1,0l0,4l-1,0l0,4l-1,0l0,4l-1,0l0,4l-1,0l0,3l-1,0l0,4l-1,0l0,5l-1,0l0,4l-1,0l0,5l-1,0l0,4l-1,0l0,4l-1,0l0,5l-1,0l0,4l-1,0l0,5l-1,0l0,4l-1,0l0,4l-1,0l0,5l-1,0l0,4l-1,0l0,5l-1,0l0,5l-1,0l0,5l-1,0l0,4l-1,0l0,5l-1,0l0,5l-1,0l0,5l-1,0l0,5l-1,0l0,5l-1,0l0,5l-1,0l0,5l-1,0l0,5l-1,0l0,5l-1,0l0,6l-1,0l0,6l-1,0l0,5l-1,0l0,6l-1,0l0,6l-1,0l0,5l-1,0l0,6l-1,0l0,6l-1,0l0,5l-1,0l0,6l-1,0l0,7l-1,0l0,7l-1,0l0,6l-1,0l0,7l-1,0l0,7l-1,0l0,6l-1,0l0,7l-1,0l0,7l-1,0l0,6l-1,0l0,8l-1,0l0,9l-1,0l0,8l-1,0l0,8l-1,0l0,8l-1,0l0,8l-1,0l0,8l-1,0l0,9l-1,0l0,10l-1,0l0,11l-1,0l0,10l-1,0l0,10l-1,0l0,10l-1,0l0,13l-1,0l0,14l-1,0l0,14l-1,0l0,14l-1,0l0,14l-1,0l0,23l-1,0l0,22l-1,0l0,29l-1,0l0,133l1,0l0,33l1,0l0,21l1,0l0,20l1,0l0,16l1,0l0,17l1,0l0,16l1,0l0,13l1,0l0,14l1,0l0,13l1,0l0,14l1,0l0,11l1,0l0,11l1,0l0,11l1,0l0,11l1,0l0,11l1,0l0,11l1,0l0,9l1,0l0,9l1,0l0,9l1,0l0,10l1,0l0,9l1,0l0,9l1,0l0,9l1,0l0,8l1,0l0,8l1,0l0,8l1,0l0,7l1,0l0,8l1,0l0,8l1,0l0,8l1,0l0,8l1,0l0,7l1,0l0,7l1,0l0,6l1,0l0,7l1,0l0,7l1,0l0,7l1,0l0,7l1,0l0,7l1,0l0,7l1,0l0,6l1,0l0,6l1,0l0,6l1,0l0,6l1,0l0,6l1,0l0,6l1,0l0,6l1,0l0,7l1,0l0,6l1,0l0,6l1,0l0,5l1,0l0,6l1,0l0,5l1,0l0,6l1,0l0,5l1,0l0,6l1,0l0,5l1,0l0,6l1,0l0,5l1,0l0,6l1,0l0,5l1,0l0,5l1,0l0,5l1,0l0,5l1,0l0,5l1,0l0,5l1,0l0,5l1,0l0,5l1,0l0,5l1,0l0,5l1,0l0,5l1,0l0,5l1,0l0,4l1,0l0,5l1,0l0,5l1,0l0,4l1,0l0,5l1,0l0,4l1,0l0,5l1,0l0,5l1,0l0,4l1,0l0,5l1,0l0,4l1,0l0,5l1,0l0,4l1,0l0,4l1,0l0,5l1,0l0,4l1,0l0,4l1,0l0,4l1,0l0,5l1,0l0,4l1,0l0,4l1,0l0,4l1,0l0,5l1,0l0,4l1,0l0,4l1,0l0,4l1,0l0,4l1,0l0,4l1,0l0,4l1,0l0,4l1,0l0,4l1,0l0,4l1,0l0,4l1,0l0,4l1,0l0,3l1,0l0,4l1,0l0,4l1,0l0,4l1,0l0,4l1,0l0,4l1,0l0,4l1,0l0,3l1,0l0,4l1,0l0,4l1,0l0,3l1,0l0,4l1,0l0,4l1,0l0,3l1,0l0,4l1,0l0,4l1,0l0,3l1,0l0,4l1,0l0,4l1,0l0,3l1,0l0,4l1,0l0,3l1,0l0,3l1,0l0,4l1,0l0,3l1,0l0,4l1,0l0,3l1,0l0,4l1,0l0,3l1,0l0,3l1,0l0,4l1,0l0,3l1,0l0,4l1,0l0,3l1,0l0,4l1,0l0,3l1,0l0,3l1,0l0,3l1,0l0,4l1,0l0,3l1,0l0,3l1,0l0,3l1,0l0,4l1,0l0,3l1,0l0,3l1,0l0,3l1,0l0,3l1,0l0,4l1,0l0,3l1,0l0,3l1,0l0,3l1,0l0,3l1,0l0,3l1,0l0,4l1,0l0,3l1,0l0,3l1,0l0,3l1,0l0,3l1,0l0,3l1,0l0,3l1,0l0,3l1,0l0,3l1,0l0,3l1,0l0,3l1,0l0,3l1,0l0,3l1,0l0,3l1,0l0,3l1,0l0,3l1,0l0,3l1,0l0,3l1,0l0,3l1,0l0,3l1,0l0,2l1,0l0,3l1,0l0,3l1,0l0,3l1,0l0,3l1,0l0,3l1,0l0,3l1,0l0,3l1,0l0,2l1,0l0,3l1,0l0,3l1,0l0,3l1,0l0,3l1,0l0,3l1,0l0,2l1,0l0,3l1,0l0,3l1,0l0,3l1,0l0,2l1,0l0,3l1,0l0,3l1,0l0,2l1,0l0,3l1,0l0,3l1,0l0,3l1,0l0,2l1,0l0,3l1,0l0,3l1,0l0,3l1,0l0,2l1,0l0,3l1,0l0,2l1,0l0,3l1,0l0,3l1,0l0,2l1,0l0,3l1,0l0,2l1,0l0,3l1,0l0,3l1,0l0,2l1,0l0,3l1,0l0,2l1,0l0,3l1,0l0,3l1,0l0,2l1,0l0,3l1,0l0,2l1,0l0,3l1,0l0,3l1,0l0,2l1,0l0,3l1,0l0,2l1,0l0,2l1,0l0,3l1,0l0,2l1,0l0,3l1,0l0,2l1,0l0,3l1,0l0,2l1,0l0,3l1,0l0,2l1,0l0,3l1,0l0,2l1,0l0,3l1,0l0,2l1,0l0,3l1,0l0,2l1,0l0,3l1,0l0,2l1,0l0,2l1,0l0,3l1,0l0,2l1,0l0,2l1,0l0,3l1,0l0,2l1,0l0,2l1,0l0,3l1,0l0,2l1,0l0,3l1,0l0,2l1,0l0,2l1,0l0,3l1,0l0,2l1,0l0,2l1,0l0,3l1,0l0,2l1,0l0,2l1,0l0,3l1,0l0,2l1,0l0,2l1,0l0,3l1,0l0,2l1,0l0,2l1,0l0,2l1,0l0,3l1,0l0,2l1,0l0,2l1,0l0,2l1,0l0,3l1,0l0,2l1,0l0,2l1,0l0,2l1,0l0,3l1,0l0,2l1,0l0,2l1,0l0,2l1,0l0,3l1,0l0,2l1,0l0,2l1,0l0,2l1,0l0,2l1,0l0,3l1,0l0,2l1,0l0,2l1,0l0,2l1,0l0,2l1,0l0,2l1,0l0,3l1,0l0,2l1,0l0,2l1,0l0,2l1,0l0,2l1,0l0,2l1,0l0,3l1,0l0,2l1,0l0,2l1,0l0,2l1,0l0,2l1,0l0,2l1,0l0,2l1,0l0,2l1,0l0,2l1,0l0,3l1,0l0,2l1,0l0,2l1,0l0,2l1,0l0,2l1,0l0,2l1,0l0,2l1,0l0,2l1,0l0,2l1,0l0,2l1,0l0,2l1,0l0,2l1,0l0,3l1,0l0,2l1,0l0,2l1,0l0,2l1,0l0,2l1,0l0,2l1,0l0,2l1,0l0,2l1,0l0,2l1,0l0,2l1,0l0,2l1,0l0,2l1,0l0,2l1,0l0,2l1,0l0,2l1,0l0,2l1,0l0,2l1,0l0,2l1,0l0,2l1,0l0,2l1,0l0,2l1,0l0,2l1,0l0,2l1,0l0,2l1,0l0,2l1,0l0,2l1,0l0,2l1,0l0,1l1,0l0,2l1,0l0,2l1,0l0,2l1,0l0,2l1,0l0,2l1,0l0,2l1,0l0,2l1,0l0,2l1,0l0,2l1,0l0,2l1,0l0,2l1,0l0,2l1,0l0,2l1,0l0,1l1,0l0,2l1,0l0,2l1,0l0,2l1,0l0,2l1,0l0,2l1,0l0,2l1,0l0,2l1,0l0,2l1,0l0,1l1,0l0,2l1,0l0,2l1,0l0,2l1,0l0,2l1,0l0,2l1,0l0,2l1,0l0,1l1,0l0,2l1,0l0,2l1,0l0,2l1,0l0,2l1,0l0,2l1,0l0,2l1,0l0,1l1,0l0,2l1,0l0,2l1,0l0,2l1,0l0,2l1,0l0,1l1,0l0,2l1,0l0,2l1,0l0,2l1,0l0,2l1,0l0,1l1,0l0,2l1,0l0,2l1,0l0,2l1,0l0,2l1,0l0,1l1,0l0,2l1,0l0,2l1,0l0,2l1,0l0,2l1,0l0,1l1,0l0,2l1,0l0,2l1,0l0,2l1,0l0,1l1,0l0,2l1,0l0,2l1,0l0,2l1,0l0,1l1,0l0,2l1,0l0,2l1,0l0,2l1,0l0,1l1,0l0,2l1,0l0,2l1,0l0,2l1,0l0,1l1,0l0,2l1,0l0,2l1,0l0,2l1,0l0,1l1,0l0,2l1,0l0,2l1,0l0,1l1,0l0,2l1,0l0,2l1,0l0,2l1,0l0,1l1,0l0,2l1,0l0,2l1,0l0,1l1,0l0,2l1,0l0,2l1,0l0,1l1,0l0,2l1,0l0,2l1,0l0,1l1,0l0,2l1,0l0,2l1,0l0,1l1,0l0,2l1,0l0,2l1,0l0,1l1,0l0,2l1,0l0,2l1,0l0,1l1,0l0,2l1,0l0,2l1,0l0,1l1,0l0,2l1,0l0,2l1,0l0,1l1,0l0,2l1,0l0,2l1,0l0,1l1,0l0,2l1,0l0,1l1,0l0,2l1,0l0,2l1,0l0,1l1,0l0,2l1,0l0,2l1,0l0,1l1,0l0,2l1,0l0,1l1,0l0,2l1,0l0,2l1,0l0,1l1,0l0,2l1,0l0,1l1,0l0,2l1,0l0,2l1,0l0,1l1,0l0,2l1,0l0,1l1,0l0,2l1,0l0,2l1,0l0,1l1,0l0,2l1,0l0,1l1,0l0,2l1,0l0,1l1,0l0,2l1,0l0,2l1,0l0,1l1,0l0,2l1,0l0,1l1,0l0,2l1,0l0,1l1,0l0,2l1,0l0,2l1,0l0,1l1,0l0,2l1,0l0,1l1,0l0,2l1,0l0,1l1,0l0,2l1,0l0,1l1,0l0,2l1,0l0,1l1,0l0,2l1,0l0,1l1,0l0,2l1,0l0,1l1,0l0,2l1,0l0,2l1,0l0,1l1,0l0,2l1,0l0,1l1,0l0,2l1,0l0,1l1,0l0,2l1,0l0,1l1,0l0,2l1,0l0,1l1,0l0,2l1,0l0,1l1,0l0,2l1,0l0,1l1,0l0,2l1,0l0,1l1,0l0,2l1,0l0,1l1,0l0,2l1,0l0,1l1,0l0,1l1,0l0,2l1,0l0,1l1,0l0,2l1,0l0,1l1,0l0,2l1,0l0,1l1,0l0,2l1,0l0,1l1,0l0,2l1,0l0,1l1,0l0,2l1,0l0,1l1,0l0,2l1,0l0,1l1,0l0,2l1,0l0,1l1,0l0,1l1,0l0,2l1,0l0,1l1,0l0,2l1,0l0,1l1,0l0,2l1,0l0,1l1,0l0,1l1,0l0,2l1,0l0,1l1,0l0,2l1,0l0,1l1,0l0,2l1,0l0,1l1,0l0,2l1,0l0,1l1,0l0,1l1,0l0,2l1,0l0,1l1,0l0,2l1,0l0,1l1,0l0,1l1,0l0,2l1,0l0,1l1,0l0,2l1,0l0,1l1,0l0,1l1,0l0,2l1,0l0,1l1,0l0,2l1,0l0,1l1,0l0,1l1,0l0,2l1,0l0,1l1,0l0,2l1,0l0,1l1,0l0,1l1,0l0,2l1,0l0,1l1,0l0,2l1,0l0,1l1,0l0,1l1,0l0,2l1,0l0,1l1,0l0,1l1,0l0,2l1,0l0,1l1,0l0,1l1,0l0,2l1,0l0,1l1,0l0,2l1,0l0,1l1,0l0,1l1,0l0,2l1,0l0,1l1,0l0,1l1,0l0,2l1,0l0,1l1,0l0,1l1,0l0,2l1,0l0,1l1,0l0,1l1,0l0,2l1,0l0,1l1,0l0,1l1,0l0,2l1,0l0,1l1,0l0,1l1,0l0,2l1,0l0,1l1,0l0,1l1,0l0,2l1,0l0,1l1,0l0,1l1,0l0,2l1,0l0,1l1,0l0,1l1,0l0,2l1,0l0,1l1,0l0,1l1,0l0,2l1,0l0,1l1,0l0,1l1,0l0,2l1,0l0,1l1,0l0,1l1,0l0,1l1,0l0,2l1,0l0,1l1,0l0,1l1,0l0,2l1,0l0,1l1,0l0,1l1,0l0,2l1,0l0,1l1,0l0,1l1,0l0,1l1,0l0,2l1,0l0,1l1,0l0,1l1,0l0,2l1,0l0,1l1,0l0,1l1,0l0,1l1,0l0,2l1,0l0,1l1,0l0,1l1,0l0,1l1,0l0,2l1,0l0,1l1,0l0,1l1,0l0,2l1,0l0,1l1,0l0,1l1,0l0,1l1,0l0,2l1,0l0,1l1,0l0,1l1,0l0,1l1,0l0,2l1,0l0,1l1,0l0,1l1,0l0,1l1,0l0,2l1,0l0,1l1,0l0,1l1,0l0,1l1,0l0,2l1,0l0,1l1,0l0,1l1,0l0,1l1,0l0,2l1,0l0,1l1,0l0,1l1,0l0,1l1,0l0,1l1,0l0,2l1,0l0,1l1,0l0,1l1,0l0,1l1,0l0,2l1,0l0,1l1,0l0,1l1,0l0,1l1,0l0,2l1,0l0,1l1,0l0,1l1,0l0,1l1,0l0,1l1,0l0,2l1,0l0,1l1,0l0,1l1,0l0,1l1,0l0,1l1,0l0,2l1,0l0,1l1,0l0,1l1,0l0,1l1,0l0,1l1,0l0,2l1,0l0,1l1,0l0,1l1,0l0,1l1,0l0,1l1,0l0,2l1,0l0,1l1,0l0,1l1,0l0,1l1,0l0,1l1,0l0,2l1,0l0,1l1,0l0,1l1,0l0,1l1,0l0,1l1,0l0,1l1,0l0,2l1,0l0,1l1,0l0,1l1,0l0,1l1,0l0,1l1,0l0,1l1,0l0,2l1,0l0,1l1,0l0,1l1,0l0,1l1,0l0,1l1,0l0,1l1,0l0,2l1,0l0,1l1,0l0,1l1,0l0,1l1,0l0,1l1,0l0,1l1,0l0,1l1,0l0,2l1,0l0,1l1,0l0,1l1,0l0,1l1,0l0,1l1,0l0,1l1,0l0,1l1,0l0,2l1,0l0,1l1,0l0,1l1,0l0,1l1,0l0,1l1,0l0,1l1,0l0,1l1,0l0,2l1,0l0,1l1,0l0,1l1,0l0,1l1,0l0,1l1,0l0,1l1,0l0,1l1,0l0,2l1,0l0,1l1,0l0,1l1,0l0,1l1,0l0,1l1,0l0,1l1,0l0,1l1,0l0,1l1,0l0,1l1,0l0,2l1,0l0,1l1,0l0,1l1,0l0,1l1,0l0,1l1,0l0,1l1,0l0,1l1,0l0,1l1,0l0,1l1,0l0,2l1,0l0,1l1,0l0,1l1,0l0,1l1,0l0,1l1,0l0,1l1,0l0,1l1,0l0,1l1,0l0,1l1,0l0,1l1,0l0,1l1,0l0,2l1,0l0,1l1,0l0,1l1,0l0,1l1,0l0,1l1,0l0,1l1,0l0,1l1,0l0,1l1,0l0,1l1,0l0,1l1,0l0,1l1,0l0,1l1,0l0,2l1,0l0,1l1,0l0,1l1,0l0,1l1,0l0,1l1,0l0,1l1,0l0,1l1,0l0,1l1,0l0,1l1,0l0,1l1,0l0,1l1,0l0,1l1,0l0,1l1,0l0,1l1,0l0,1l1,0l0,2l1,0l0,1l1,0l0,1l1,0l0,1l1,0l0,1l1,0l0,1l1,0l0,1l1,0l0,1l1,0l0,1l1,0l0,1l1,0l0,1l1,0l0,1l1,0l0,1l1,0l0,1l1,0l0,1l1,0l0,1l1,0l0,1l1,0l0,1l1,0l0,1l1,0l0,1l1,0l0,1l1,0l0,1l1,0l0,1l1,0l0,1l1,0l0,2l1,0l0,1l1,0l0,1l1,0l0,1l1,0l0,1l1,0l0,1l1,0l0,1l1,0l0,1l1,0l0,1l1,0l0,1l1,0l0,1l1,0l0,1l1,0l0,1l1,0l0,1l1,0l0,1l1,0l0,1l1,0l0,1l1,0l0,1l1,0l0,1l1,0l0,1l1,0l0,1l1,0l0,1l1,0l0,1l1,0l0,1l1,0l0,1l1,0l0,1l1,0l0,1l1,0l0,1l1,0l0,1l1,0l0,1l1,0l0,1l1,0l0,1l1,0l0,1l1,0l0,1l1,0l0,1l1,0l0,1l1,0l0,1l1,0l0,1l1,0l0,1l1,0l0,1l1,0l0,1l1,0l0,1l1,0l0,1l1,0l0,1l1,0l0,1l1,0l0,1l1,0l0,1l1,0l0,1l1,0l0,1l1,0l0,1l1,0l0,1l1,0l0,1l2,0l0,1l1,0l0,1l1,0l0,1l1,0l0,1l1,0l0,1l1,0l0,1l1,0l0,1l1,0l0,1l1,0l0,1l1,0l0,1l1,0l0,1l1,0l0,1l1,0l0,1l1,0l0,1l1,0l0,1l1,0l0,1l1,0l0,1l1,0l0,1l1,0l0,1l1,0l0,1l1,0l0,1l1,0l0,1l2,0l0,1l1,0l0,1l1,0l0,1l1,0l0,1l1,0l0,1l1,0l0,1l1,0l0,1l1,0l0,1l1,0l0,1l1,0l0,1l1,0l0,1l1,0l0,1l1,0l0,1l1,0l0,1l1,0l0,1l2,0l0,1l1,0l0,1l1,0l0,1l1,0l0,1l1,0l0,1l1,0l0,1l1,0l0,1l1,0l0,1l1,0l0,1l1,0l0,1l1,0l0,1l2,0l0,1l1,0l0,1l1,0l0,1l1,0l0,1l1,0l0,1l1,0l0,1l1,0l0,1l1,0l0,1l1,0l0,1l1,0l0,1l2,0l0,1l1,0l0,1l1,0l0,1l1,0l0,1l1,0l0,1l1,0l0,1l1,0l0,1l1,0l0,1l1,0l0,1l2,0l0,1l1,0l0,1l1,0l0,1l1,0l0,1l1,0l0,1l1,0l0,1l1,0l0,1l1,0l0,1l2,0l0,1l1,0l0,1l1,0l0,1l1,0l0,1l1,0l0,1l1,0l0,1l1,0l0,1l2,0l0,1l1,0l0,1l1,0l0,1l1,0l0,1l1,0l0,1l1,0l0,1l1,0l0,1l2,0l0,1l1,0l0,1l1,0l0,1l1,0l0,1l1,0l0,1l1,0l0,1l2,0l0,1l1,0l0,1l1,0l0,1l1,0l0,1l1,0l0,1l2,0l0,1l1,0l0,1l1,0l0,1l1,0l0,1l1,0l0,1l1,0l0,1l2,0l0,1l1,0l0,1l1,0l0,1l1,0l0,1l1,0l0,1l2,0l0,1l1,0l0,1l1,0l0,1l1,0l0,1l1,0l0,1l2,0l0,1l1,0l0,1l1,0l0,1l1,0l0,1l1,0l0,1l2,0l0,1l1,0l0,1l1,0l0,1l1,0l0,1l2,0l0,1l1,0l0,1l1,0l0,1l1,0l0,1l1,0l0,1l2,0l0,1l1,0l0,1l1,0l0,1l1,0l0,1l2,0l0,1l1,0l0,1l1,0l0,1l1,0l0,1l2,0l0,1l1,0l0,1l1,0l0,1l1,0l0,1l2,0l0,1l1,0l0,1l1,0l0,1l2,0l0,1l1,0l0,1l1,0l0,1l1,0l0,1l1,0l0,1l1,0l0,1l1,0l0,1l1,0l0,1l1,0l0,1l1,0l0,1l1,0l0,1l1,0l0,2l1,0l0,1l1,0l0,1l1,0l0,1l1,0l0,1l1,0l0,1l1,0l0,1l1,0l0,1l1,0l0,1l1,0l0,1l1,0l0,2l1,0l0,1l1,0l0,1l1,0l0,1l1,0l0,1l1,0l0,1l1,0l0,2l1,0l0,1l1,0l0,1l1,0l0,1l1,0l0,1l1,0l0,1l1,0l0,1l1,0l0,2l1,0l0,1l1,0l0,1l1,0l0,1l1,0l0,1l1,0l0,2l1,0l0,1l1,0l0,1l1,0l0,1l1,0l0,1l1,0l0,2l1,0l0,1l1,0l0,1l1,0l0,1l1,0l0,2l1,0l0,1l1,0l0,1l1,0l0,1l1,0l0,2l1,0l0,1l1,0l0,1l1,0l0,2l1,0l0,1l1,0l0,1l1,0l0,2l1,0l0,1l1,0l0,1l1,0l0,2l1,0l0,1l1,0l0,1l1,0l0,2l1,0l0,1l1,0l0,2l1,0l0,1l1,0l0,2l1,0l0,1l1,0l0,2l1,0l0,1l1,0l0,2l1,0l0,1l1,0l0,2l1,0l0,1l1,0l0,2l1,0l0,2l1,0l0,1l1,0l0,2l1,0l0,2l1,0l0,1l1,0l0,2l1,0l0,2l1,0l0,2l1,0l0,2l1,0l0,2l1,0l0,2l1,0l0,2l1,0l0,2l1,0l0,1l1,0l0,3l1,0l0,2l1,0l0,2l1,0l0,2l1,0l0,3l1,0l0,2l1,0l0,3l1,0l0,2l1,0l0,3l1,0l0,3l1,0l0,3l1,0l0,3l1,0l0,3l1,0l0,4l1,0l0,3l1,0l0,4l1,0l0,4l1,0l0,5l1,0l0,4l1,0l0,5l1,0l0,6l1,0l0,6l1,0l0,7l1,0l0,8l1,0l0,9l1,0l0,10l1,0l0,12l1,0l0,12l1,0l0,13l1,0l0,1l1,0l0,-1l1,0l0,-3l1,0l0,-3l1,0l0,-3l1,0l0,-4l1,0l0,-3l1,0l0,-4l1,0l0,-5l1,0l0,-4l1,0l0,-5l1,0l0,-6l1,0l0,-6l1,0l0,-5l1,0l0,-7l1,0l0,-7l1,0l0,-7l1,0l0,-8l1,0l0,-8l1,0l0,-9l1,0l0,-9l1,0l0,-9l1,0l0,-11l1,0l0,-10l1,0l0,-11l1,0l0,-12l1,0l0,-12l1,0l0,-13l1,0l0,-13l1,0l0,-14l1,0l0,-15l1,0l0,-15l1,0l0,-17l1,0l0,-16l1,0l0,-18l1,0l0,-19l1,0l0,-19l1,0l0,-20l1,0l0,-22l1,0l0,-22l1,0l0,-24l1,0l0,-24l1,0l0,-26l1,0l0,-27l1,0l0,-29l1,0l0,-30l1,0l0,-31l1,0l0,-34l1,0l0,-35l1,0l0,-37l1,0l0,-40l1,0l0,-42l1,0l0,-45l1,0l0,-48l1,0l0,-51l1,0l0,-55l1,0l0,-59l1,0l0,-65l1,0l0,-71l1,0l0,-78l1,0l0,-86l1,0l0,-98l1,0l0,-112l1,0l0,-131l1,0l0,-157l1,0l0,-192l1,0l0,-221l1,0l0,-192l1,0l0,-115l1,0l0,-58l1,0l0,-34l1,0l0,-40l1,0l0,-42l1,0l0,-51l1,0l0,-63l1,0l0,-97l1,0l0,-193l-1,0l0,-98l-1,0l0,-63l-1,0l0,-53l-1,0l0,-40l-1,0l0,-40l-1,0l0,-33l-1,0l0,-32l-1,0l0,-31l-1,0l0,-27l-1,0l0,-26l-1,0l0,-27l-1,0l0,-23l-1,0l0,-22l-1,0l0,-23l-1,0l0,-22l-1,0l0,-20l-1,0l0,-20l-1,0l0,-19l-1,0l0,-19l-1,0l0,-18l-1,0l0,-17l-1,0l0,-18l-1,0l0,-17l-1,0l0,-16l-1,0l0,-16l-1,0l0,-16l-1,0l0,-16l-1,0l0,-15l-1,0l0,-14l-1,0l0,-14l-1,0l0,-14l-1,0l0,-15l-1,0l0,-13l-1,0l0,-13l-1,0l0,-13l-1,0l0,-13l-1,0l0,-13l-1,0l0,-13l-1,0l0,-12l-1,0l0,-12l-1,0l0,-12l-1,0l0,-12l-1,0l0,-11l-1,0l0,-12l-1,0l0,-11l-1,0l0,-11l-1,0l0,-10l-1,0l0,-11l-1,0l0,-11l-1,0l0,-11l-1,0l0,-10l-1,0l0,-10l-1,0l0,-9l-1,0l0,-10l-1,0l0,-10l-1,0l0,-10l-1,0l0,-9l-1,0l0,-9l-1,0l0,-10l-1,0l0,-9l-1,0l0,-9l-1,0l0,-9l-1,0l0,-9l-1,0l0,-8l-1,0l0,-8l-1,0l0,-9l-1,0l0,-8l-1,0l0,-9l-1,0l0,-8l-1,0l0,-8l-1,0l0,-7l-1,0l0,-8l-1,0l0,-8l-1,0l0,-8l-1,0l0,-7l-1,0l0,-8l-1,0l0,-7l-1,0l0,-7l-1,0l0,-7l-1,0l0,-7l-1,0l0,-7l-1,0l0,-7l-1,0l0,-7l-1,0l0,-7l-1,0l0,-6l-1,0l0,-7l-1,0l0,-6l-1,0l0,-7l-1,0l0,-6l-1,0l0,-6l-1,0l0,-7l-1,0l0,-5l-1,0l0,-6l-1,0l0,-6l-1,0l0,-6l-1,0l0,-6l-1,0l0,-6l-1,0l0,-5l-1,0l0,-6l-1,0l0,-5l-1,0l0,-5l-1,0l0,-6l-1,0l0,-5l-1,0l0,-5l-1,0l0,-5l-1,0l0,-5l-1,0l0,-5l-1,0l0,-5l-1,0l0,-4l-1,0l0,-5l-1,0l0,-5l-1,0l0,-5l-1,0l0,-4l-1,0l0,-5l-1,0l0,-4l-1,0l0,-4l-1,0l0,-4l-1,0l0,-4l-1,0l0,-4l-1,0l0,-5l-1,0l0,-4l-1,0l0,-3l-1,0l0,-4l-1,0l0,-4l-1,0l0,-3l-1,0l0,-4l-1,0l0,-4l-1,0l0,-3l-1,0l0,-3l-1,0l0,-4l-1,0l0,-3l-1,0l0,-3l-1,0l0,-3l-1,0l0,-3l-1,0l0,-3l-1,0l0,-3l-1,0l0,-3l-1,0l0,-3l-1,0l0,-2l-1,0l0,-3l-1,0l0,-3l-1,0l0,-2l-1,0l0,-2l-1,0l0,-2" id="path68"/>
      </g>
     </g>
    </g>
    <g id="g70" transform="translate(0,32.61222839355469) scale(1.0461000204086304) ">
     <path fill="#bfbdba" fill-rule="nonzero" d="m14686.3,1202.06c79.7,-63.76 239.2,-90.01 379.7,-90.01c182.3,0 360.8,33.8 535.3,191.22c178.5,161.3 300,408.76 300,802.47c0,378.73 -144.3,686.21 -440.4,866.2c-167.1,104.98 -383.5,146.21 -630.4,146.21c-72,0 -144.2,-3.73 -186,-22.48c-11.4,-7.5 -34.2,-37.5 -34.2,-52.53c-7.5,-67.47 -7.5,-581.18 -7.5,-884.89c0,-311.21 0,-746.18 7.5,-798.73c3.9,-44.97 26.7,-123.71 76,-157.46zm-757.9,2084.84c64.6,0 309.9,-11.24 423.8,-11.24c212.6,0 360.7,11.24 759.3,11.24c334.2,0 615.1,-90 816.4,-262.46c243,-210.01 372.1,-502.48 372.1,-858.69c0,-506.22 -231.6,-798.69 -463.2,-963.69c-231.7,-172.47 -531.6,-269.975 -960.7,-269.975c-227.8,0 -618.9,7.506 -945.5,11.206l-4.4,0c-15.2,30.045 28,146.979 54.7,150.009c88.3,10 112.2,13.39 153.2,30.27c68.9,28.35 85.1,63.48 92.8,187.23c11.4,232.47 7.6,509.94 7.6,824.94c0,224.97 3.8,663.69 -3.8,802.45c-11.5,116.23 -60.7,146.21 -159.4,168.74c-49.5,11.22 -117.8,22.49 -212.6,33.74c-7.7,22.48 50.8,123.76 69.7,146.23" id="path72"/>
    </g>
    <g id="g74" transform="translate(0,32.61222839355469) scale(1.191290020942688) ">
     <path fill="#bfbdba" fill-rule="nonzero" d="m15196.4,2724.96c-13.3,-3.29 -30,-36.23 -30,-52.69c-3.3,-118.51 -6.6,-428.03 -6.6,-642.03c0,-6.59 9.9,-16.47 16.6,-16.47c43.4,-3.33 150,-6.62 240,-6.62c126.8,0 200.1,16.5 240.2,36.26c106.7,52.65 156.6,167.91 156.6,293.03c0,286.46 -200,395.13 -496.7,395.13c-20,0 -76.8,0 -120.1,-6.61zm756.8,-1317.08c0,289.75 -213.3,454.37 -603.4,454.37c-16.7,0 -140,3.33 -170,-3.29c-10.1,-3.26 -20,-9.85 -20,-16.43c0,-207.47 -3.4,-540.03 6.6,-671.71c6.7,-55.99 46.7,-135.02 96.7,-158.07c53.4,-29.636 173.4,-36.227 256.7,-36.227c230.1,0 433.4,128.437 433.4,431.357zm-1358.9,1478.44c30,0 118.8,-9.87 345.4,-9.87c213.4,0 386.7,6.55 593.5,6.55c256.7,0 610.1,-92.17 610.1,-474.14c0,-187.67 -133.3,-339.14 -306.7,-411.59c-10,-3.3 -10,-9.88 0,-13.18c246.7,-62.53 463.4,-214.01 463.4,-503.76c0,-283.17 -176.7,-461 -433.4,-572.958c-156.7,-69.119 -350,-92.17 -546.9,-92.17c-150,0 -552,16.461 -775.4,13.129c-23.4,9.922 21.4,115.303 41.3,131.731c53.4,3.289 94.6,7.135 151.2,23.596c80,19.762 89.5,45.552 99.5,164.112c6.7,102.04 6.7,467.53 6.7,727.69c0,355.62 3.4,595.97 0,714.5c-3.4,92.21 -36.7,121.85 -100.1,138.32c-49.9,9.86 -133.3,19.75 -199.9,29.63c-16.7,16.46 34.6,115.24 51.3,128.41" id="path76"/>
    </g>
    <path fill="#414043" fill-rule="nonzero" d="m3176.5,1009.39323c-6.62,10.559 -13.62,41.759 -12.15,79.309c1.08,28.53 6.76,46.65 12.1,52.86c74.91,11.82 110.38,19.81 152.47,31.06c70.22,17.42 96.7,55.34 100.82,145.16c11.54,211.56 12.2,608.25 7.99,887.25l0.05,8.22c0.33,29.93 0.8,70.85 -36.79,99.71c-55.09,36.28 -123.76,66.31 -210.68,92.38c-33.25,9.85 -51.64,27.32 -50.65,47.78c1.04,19.66 21.9,44.64 65.26,53c115.01,11.86 416.58,83.64 534.9,138.24c7,-8.5 18.06,-26.95 15.93,-56.37c-0.89,-12.37 -1.98,-25.31 -3.07,-38.71c-3.36,-39.42 -7.14,-84.12 -7.14,-128.67c0,-13.12 14.23,-25.55 29.32,-25.55c7.66,0 14.75,2.99 20.53,8.69c225.52,176.49 427.22,239.49 531.06,239.49c170.62,0 303.41,-81.45 406.03,-248.88c6.01,-8.87 14.1,-13.54 23.13,-13.54c8.61,0 16.74,4.43 21.51,11.53c207.38,157.11 412.89,250.89 550.27,250.89c325.16,0 519.39,-243.13 519.39,-650.24c0,-116.99 -1.18,-265.27 -2.22,-403.7c-1,-121.43 -1.85,-235.28 -1.85,-314.07c0,-19.1 25.54,-72.07 64.12,-82.66c47.53,-23.12 116.24,-34.94 202.97,-49.89l3.36,-0.56c6.57,-23.3 -7.23,-114.088 -20.43,-132.678c-21.51,0.188 -51.36,1.727 -88.48,3.598c-67.53,3.461 -160.03,8.121 -267.75,8.121c-216.07,0 -328.95,-4.25 -436.78,-11.211c-8.13,26.95 -10.96,113.82 -1.08,131.94c62.9,11.77 94.01,19.7 131.75,30.87c68.76,22.65 88.57,53.8 92.59,145.02c1.56,64.91 14.05,635.85 -8.09,771.43c-20.37,140.48 -126.4,304.92 -358.26,304.92c-85.98,0 -224.97,-35.73 -357.42,-136.05c-8.23,-7.98 -12.96,-23.48 -12.96,-33.67l0.24,-2.61c15.6,-73.19 15.6,-158.51 15.6,-287.65c0,-73.6 -0.47,-151.69 -0.89,-229.21c-0.9,-157.4 -1.75,-306.05 0.89,-418.32c0,-76.55 46.35,-94.8 83.61,-109.56c20.24,-4.49 36.32,-8.36 52.4,-12.19c31.21,-7.52 63.51,-15.27 111.33,-22.93c6.51,-15.09 7.13,-60.15 -1.85,-98.69c-5.02,-21.3 -10.79,-30.679 -13.81,-33.718c-120.17,4.109 -243.45,7.707 -421.31,7.707c-53.91,0 -141.96,-2.328 -219.61,-4.391c-62.94,-1.679 -122.58,-3.316 -156.44,-3.457c-4.92,7.75 -11.77,32.599 -11.77,68.369c0,33.26 6.09,56.71 12.39,63.94c16.69,3.09 32.58,5.89 47.76,8.6c41.71,7.42 77.74,13.77 112.31,22.27c58.88,17.93 80.96,50.63 85.27,125.4c11.49,174.58 20.47,677.42 -4.26,803.38c-42.08,202.08 -157.29,304.5 -342.28,304.5c-108.49,0 -245.39,-52.12 -357.33,-135.95c-18.77,-13.83 -32.96,-48.62 -32.96,-80.75c0,-59.87 -0.19,-131.19 -0.42,-207.64c-0.76,-252.57 -1.66,-566.92 4.49,-702.97c3.78,-41.8 18.34,-91.58 97.27,-109.94c17.21,-4.81 47.05,-9.81 81.62,-15.5c19.91,-3.32 41.67,-6.91 64.04,-10.93c8.04,-21.62 3.12,-106.39 -10.65,-132.779c-34.51,0.239 -76.98,2.199 -125.69,4.348c-74.44,3.262 -166.98,7.422 -272.48,7.422c-124.14,0 -210.59,-4.16 -280.01,-7.422c-46.54,-2.199 -86.92,-4.16 -127.21,-4.348l0,0" id="path78"/>
    <path fill="#414043" fill-rule="nonzero" d="m7116.92,2476.46223c-72.31,0 -139.79,-18.91 -190.01,-53.28c-137.95,-83.79 -208.13,-251.08 -208.13,-496.83c0,-460.2 230.69,-781.56 560.96,-781.56c97.42,0 176.87,27.97 242.88,85.55c101.49,82.72 155.3,251.64 155.3,488.14c0,453.39 -225.47,757.98 -561,757.98zm63.61,-1502.37c-596.76,0 -809.37,437.23 -809.37,846.34c0,285.78 116.99,509.25 347.86,664.11c164.1,100.74 359.98,158.7 536.94,158.7c455.4,0 773.52,-327.06 773.52,-795.4c0,-318.41 -127.12,-569.72 -367.54,-726.78c-115.3,-70.67 -315.38,-146.97 -481.41,-146.97l0,0" id="path80"/>
    <path fill="#414043" fill-rule="nonzero" d="m13296.5,2476.46223c-72.4,0 -139.9,-18.91 -190.1,-53.28c-137.9,-83.79 -208.1,-251.03 -208.1,-496.83c0,-460.2 230.6,-781.56 561,-781.56c97.4,0 176.8,27.97 242.8,85.6c101.5,82.67 155.3,251.54 155.3,488.05c0,453.38 -225.4,758.02 -560.9,758.02zm63.5,-1502.37c-596.8,0 -809.4,437.18 -809.4,846.29c0,285.88 117.1,509.35 348,664.21c164,100.74 359.9,158.65 536.9,158.65c455.4,0 773.5,-327.11 773.5,-795.35c0,-318.51 -127.1,-569.81 -367.5,-726.78c-115.3,-70.72 -315.4,-147.02 -481.5,-147.02l0,0" id="path82"/>
    <path fill="#414043" fill-rule="nonzero" d="m11299.5,2492.11223c-183.9,0 -302.8,-145.11 -302.8,-369.65c0,-226.65 102.2,-491.26 390.3,-491.26c49.5,0 139.1,21.95 183.5,70.89c66.9,61.41 110.6,188.3 110.6,322.34c0,292.87 -142.6,467.68 -381.6,467.68zm-23.7,-1549.359c-69.1,0 -119.4,-20.082 -149.4,-36.942c-145.6,-93.219 -213.1,-186.347 -213.1,-293.527c0,-101.113 39.3,-181.442 123.7,-252.852c102.2,-86.539 240.1,-128.609 421.4,-128.609c356.7,0 516.6,191.57 516.6,381.461c0,132.117 -66.4,220.707 -202.9,270.777c-105.3,38.442 -281.1,59.692 -496.3,59.692zm23.7,-910.141c-214.2,0 -368.5,45.1602 -500.4,146.5c-128.3,98.922 -185.7,245.57 -185.7,346.922c0,29.137 6.9,104.469 70.2,176.43c37.4,42.359 123.8,121.66 323.5,258.867c6.2,2.301 10.4,8.359 10.4,15.703c0,8.168 -5.2,14.797 -12.5,16.348c-164.6,62.95 -214.3,166.25 -229.2,222.3c-0.2,2.01 -0.9,5.23 -1.6,8.64c-4.8,21.99 -9.2,42.78 20.6,64.12c23,16.44 60,38.34 99.2,61.46c57.9,34.15 123.5,72.81 159.8,103.92c5.7,5.6 8.1,13.82 6.7,22.04c-1.4,8.32 -6.2,15.13 -13.3,18.64c-243.6,81.77 -366.3,262.51 -366.3,537.78c0,177.7 82,338.31 225,440.73c98,77.34 343.9,170.32 503.3,170.32l9.2,-0.09c163.9,-3.88 256.3,-38.15 384.2,-85.47c69.4,-25.68 135.2,-36.09 227.1,-36.09c135.7,0 194.9,42.96 245.8,92.28c2.9,-6.12 9.8,-25.5 12.9,-70.15c3.2,-45.53 -9.2,-113.02 -44.1,-161.17c-27.7,-38.39 -92,-66.22 -152.7,-66.22c-6.1,0 -12.1,0.28 -17.8,0.88c-62.5,6.13 -91.9,15.23 -92.1,15.37l-15.4,-5.33c-4.8,-7.05 -1.7,-14.89 2.3,-24.79c1,-2.38 1.9,-4.63 2.3,-6.13c8,-31.75 22.1,-124.46 22.1,-150.42c0,-288.67 -114,-414.58 -237.2,-507.66c-117.6,-88.64 -255.1,-141.93 -410,-158.28l-0.1,0c-3.2,0 -17.8,-1.3 -47.4,-3.92c-19.1,-1.73 -42.9,-3.87 -46.4,-3.87l-3.5,-0.47c-26.9,-7.61 -96.7,-40.78 -96.7,-102.52c0,-51.37 31.7,-115.02 182.6,-126.41c30.6,-2.3 63.5,-4.59 97.8,-6.92c199.4,-13.87 448.4,-31.15 565.5,-70.85c161.2,-58.66 261.5,-202.869 261.5,-376.33c0,-259.058 -184.4,-502.609 -493.2,-651.449c-149.8,-70.4297 -301.9,-104.711 -466.4,-104.711l0,0" id="path84"/>
    <path fill="#414043" fill-rule="nonzero" d="m10329.9,1153.57223c-87.4,11.77 -151,23.54 -226.4,58.84c-11.9,7.85 -27.9,43.15 -27.9,54.92c-7.9,121.61 -7.9,474.64 -7.9,706.06c0,188.3 -31.7,353.02 -111.17,470.76c-95.34,133.34 -230.36,211.79 -405.14,211.79c-154.87,0 -361.44,-105.92 -532.2,-251.07c-3.98,-3.92 -30.22,-28.77 -29.65,9.86c0.61,38.57 6.57,117.08 10.17,166.54c3.59,49.41 -26.02,72.71 -26.02,72.71c-111.22,-54.92 -424.42,-129.27 -540.09,-141.22c-84.54,-16.26 -105.84,-97.45 -15.84,-125.48l0,-0.02c0,-0.14 0.86,-0.29 1.35,-0.43c94.22,-28.31 157.69,-58.57 205.07,-89.79c35.75,-27.47 31.75,-66.7 31.75,-98.08c3.97,-262.8 3.96,-666.87 -7.96,-886.51c-3.97,-86.31 -27.81,-117.64 -91.36,-133.39l5.8,1.97c-47.66,-11.72 -87.39,-19.62 -146.97,-27.46c-19.86,-19.57 -19.86,-133.339 0,-156.921c39.72,0 242.31,11.813 409.1,11.813c230.35,0 349.52,-11.813 409.11,-11.813c23.83,27.5 31.78,133.431 15.89,156.921c-67.53,3.92 -115.2,11.77 -162.87,23.54c-63.56,15.69 -79.45,47.07 -83.37,117.68c-7.95,184.34 -7.95,576.59 -7.95,843.36c0,74.54 19.86,109.85 43.7,129.47c79.4,70.6 210.49,117.63 325.69,117.63c111.18,0 186.65,-35.3 242.26,-82.33c75.48,-62.77 103.28,-153 111.23,-219.69c15.89,-149.08 11.87,-447.18 11.87,-706.05c0,-141.23 -11.87,-176.54 -63.51,-192.23c-23.84,-11.77 -87.39,-23.54 -162.87,-31.38c-23.78,-23.49 -15.88,-133.339 0,-156.921c103.28,0 222.45,11.813 397.19,11.813c218.49,0 357.49,-11.813 413.09,-11.813c23.8,27.5 31.7,129.501 15.9,156.921" id="path86"/>
   </g>
  </g>
 </g>
</svg>